<?xml version="1.0" encoding="utf-8"?>
<!-- Generator: Adobe Illustrator 26.3.1, SVG Export Plug-In . SVG Version: 6.00 Build 0)  -->
<svg version="1.1" id="Layer_1" xmlns="http://www.w3.org/2000/svg" xmlns:xlink="http://www.w3.org/1999/xlink" x="0px" y="0px"
	 viewBox="0 0 756 168.3" style="enable-background:new 0 0 756 168.3;" xml:space="preserve">
<style type="text/css">
	.st0{fill:#FBAA19;}
</style>
<g transform="translate(27.13144, 201.590525)">
	<path class="st0" d="M11.4-51.2v-71.7c0-14.7,1-24.2,2.9-28.4c1.9-4.2,6.1-9.9,12.4-17c6.3-7.2,11-10.8,14.1-10.8
		c4.2,0,9.5,2.1,15.8,6.3c6.3,4.2,11,8.9,14,14.2l-16.1,13.8c-5.4-6.7-9.7-10.1-13-10.1c-1.3,0-2.7,1-4.3,3c-1.6,2-3,4.1-4.1,6.3
		c-1.1,2.2-1.7,7.8-1.7,16.8v4.1h25.9v21.7H31.4v51.7L11.4-51.2L11.4-51.2z"/>
</g>
<g transform="translate(70.542373, 201.590525)">
	<path class="st0" d="M66.8-148h19.1v66.8c0,2,0.8,4.2,2.3,6.4c1.6,2.2,3,3.3,4.3,3.3s4.2-2.4,8.4-7.4V-148H120v96.8h-14.7
		l-1.7-10.6C96.3-53.3,91.2-49,88.3-49c-2.9,0-7.2-3.3-13-10c-5.7-6.7-8.6-13.2-8.6-19.7L66.8-148L66.8-148z M105.8-174.2
		c0,1.7-3.5,5.3-10.4,10.7c-6.9,5.4-10.7,8.2-11.4,8.2c-0.7,0-1.7-0.9-3.2-2.6c-1.4-1.7-2.2-3-2.2-3.8s2.5-5,7.5-12.7
		c5-7.7,8-11.5,8.9-11.5c0.9,0,2.9,1.7,6.1,5C104.3-177.6,105.8-175.4,105.8-174.2L105.8-174.2z"/>
</g>
<g transform="translate(117.229601, 201.590525)">
	<path class="st0" d="M141.7-129.1v39.7c0,5.6,1.5,10.8,4.6,15.4c3.1,4.7,7.3,8.4,12.7,11.1L143.2-49c-5.8-3.3-10.7-8-14.6-13.9
		c-3.9-5.9-5.9-12.2-5.9-18.8v-47.4h-7.2v-13.5l7.2-2.2c-0.2-5.9-0.8-10.5-1.7-13.9c-1-3.4-2.8-6.7-5.5-10l15.9-13.8
		c6.9,6.8,10.4,16.5,10.4,29.1v5.4h16.2v18.9L141.7-129.1L141.7-129.1z"/>
</g>
<g transform="translate(148.354406, 201.590525)">
	<path class="st0" d="M161.3-51.2v-98c0-6.1-0.6-10.8-1.7-14c-1.2-3.2-3-6.2-5.5-8.8l15.9-13.8c6.9,6.8,10.4,16.5,10.4,28.9v16.4
		c5.8-6.4,9.9-9.5,12.5-9.5s6.5,3.2,11.7,9.6c5.3,6.4,8.3,11.1,9.1,14.1c1.1,3,1.6,11.9,1.6,26.8s-0.5,23.8-1.6,26.8
		c-0.8,3-3.8,7.7-9.1,14.1c-5.2,6.4-9,9.6-11.3,9.6c-3.4,0-8.8-4.4-16.2-13.1l-1.6,10.9L161.3-51.2L161.3-51.2z M181.1-78.6
		c0.7,1.5,2,3,4.1,4.7c2.1,1.6,3.6,2.4,4.7,2.4c1.1,0,2.2-0.8,3.4-2.3c1.2-1.6,2.1-3.2,2.7-4.8c0.6-1.7,0.9-8.7,0.9-20.9
		s-0.3-19.2-0.9-20.8c-0.6-1.6-1.5-3.2-2.7-4.8c-1.2-1.6-2.3-2.4-3.3-2.4c-1,0-2.6,0.8-4.6,2.4c-2.1,1.6-3.4,3-4.1,4.2
		c-0.8,2-1.2,9.2-1.2,21.6S180.4-80.1,181.1-78.6L181.1-78.6z"/>
</g>
<g transform="translate(190.946243, 201.590525)">
	<path class="st0" d="M232.7-72.4c1.5,1.8,2.7,2.7,3.5,2.7c0.9,0,2.1-0.9,3.5-2.7c1.5-1.8,2.6-3.4,3.3-4.9c1.3-2.6,1.9-10,1.9-22.3
		s-0.6-19.7-1.9-22.4c-0.7-1.4-1.8-3-3.3-4.8c-1.5-1.8-2.7-2.7-3.5-2.7s-2,0.9-3.5,2.7c-1.5,1.8-2.6,3.4-3.3,4.8
		c-1.2,2.6-1.9,10-1.9,22.3s0.6,19.7,1.9,22.4C230.1-75.8,231.2-74.2,232.7-72.4z M249.3-57.8C243.4-52,239-49,236.2-49
		c-2.8,0-7.2-2.9-13.1-8.8c-5.9-5.9-9.6-10.2-10.9-13.1c-2-4.4-3-14-3-28.7s1-24.2,3-28.5c1.4-2.9,5-7.2,10.9-13.1
		c5.9-5.9,10.3-8.8,13.1-8.8c2.8,0,7.2,2.9,13.1,8.8c5.9,5.9,9.6,10.2,10.9,13.1c2,4.3,3.1,13.8,3.1,28.5s-1,24.3-3.1,28.7
		C258.9-68.1,255.2-63.7,249.3-57.8z"/>
</g>
<g transform="translate(230.443802, 201.590525)">
	<path class="st0" d="M313.2-148v73.6c0.6,4.2,2.8,7.9,6.8,11.2l-13,13.8c-1.3-1.1-2.8-3-4.6-5.7c-1.8-2.7-3.4-5.6-4.6-8.4
		c-8,9.7-13.6,14.5-16.8,14.5c-2.3,0-6-3.2-11.2-9.5c-5.2-6.4-8.4-11.5-9.6-15.4c-1.2-3.9-1.9-12.5-1.9-25.6s0.6-21.6,1.9-25.6
		c1.3-4,4.5-9.1,9.6-15.4c5.2-6.4,8.9-9.5,11.2-9.5c3.4,0,8.8,4.3,16.4,12.9L299-148L313.2-148L313.2-148z M293.1-120.6
		c-0.7-1.5-2.1-3-4.1-4.7c-2.1-1.6-3.6-2.4-4.7-2.4c-1.1,0-2.2,0.8-3.4,2.3c-1.2,1.6-2,3-2.4,4.3c-1.2,2.2-1.9,9.3-1.9,21.5
		s0.6,19.3,1.9,21.5c0.4,1.2,1.2,2.6,2.4,4.2c1.2,1.6,2.3,2.4,3.4,2.4c1.1,0,2.6-0.8,4.7-2.4c2.1-1.6,3.4-3.1,4-4.4
		c0.6-1.3,1-8.3,1.1-21C294.1-112,293.8-119.1,293.1-120.6L293.1-120.6z"/>
</g>
<g transform="translate(273.399673, 201.590525)">
	<path class="st0" d="M335.8-51.2h-19.1v-61.9c0-6.1-0.6-10.9-1.8-14.3c-1.2-3.4-3-6.4-5.4-8.9l15.9-13.8c3.5,3.6,6.1,7.8,8,12.6
		c7.1-8.4,12.1-12.6,15-12.6c1.9,0,4.9,2.2,8.8,6.7c4,4.4,6.3,9.3,6.9,14.5l-15.5,13.8c-0.1-2.9-0.7-5.7-1.7-8.4
		c-1-2.7-1.9-4.1-2.7-4.1c-1.6,0-4.5,2.5-8.5,7.5L335.8-51.2L335.8-51.2z"/>
</g>
<g transform="translate(308.255834, 201.590525)">
	<path class="st0" d="M356.5-126.4c0.8-3,3.8-7.7,9-14.1c5.3-6.4,9.1-9.6,11.6-9.6c2.5,0,6.8,3.2,12.8,9.7v-8.8
		c0-6.1-0.6-10.8-1.7-14c-1.1-3.2-3-6.2-5.5-8.8l15.9-13.8c6.9,6.8,10.4,16.5,10.4,28.9v105.8h-14.8l-1.7-10.6
		c-7,8.5-12.3,12.8-15.8,12.8c-2.3,0-6.1-3.2-11.3-9.6c-5.3-6.4-8.3-11.1-9-14.1c-1.1-3-1.6-11.9-1.6-26.8S355.5-123.4,356.5-126.4
		L356.5-126.4z M389-120.6c-0.7-1.5-2-3-4.1-4.7c-2.1-1.6-3.6-2.4-4.7-2.4s-2.2,0.8-3.4,2.3c-1.2,1.6-2.1,3.2-2.7,4.9
		c-0.6,1.7-0.9,8.6-0.9,20.9s0.3,19.2,0.9,20.8c0.6,1.6,1.5,3.2,2.7,4.8c1.2,1.6,2.3,2.4,3.3,2.4s2.6-0.8,4.6-2.4
		c2.1-1.6,3.4-3,4.1-4.2c0.6-1.7,1-6.5,1.1-14.5v-6.6C390.1-112,389.7-119.1,389-120.6L389-120.6z"/>
</g>
</svg>
